<?xml version="1.0" encoding="UTF-8" standalone="no"?>
<!-- Generator: Gravit.io -->
<svg xmlns="http://www.w3.org/2000/svg" xmlns:xlink="http://www.w3.org/1999/xlink" style="isolation:isolate" viewBox="0 0 256 256" width="256pt" height="256pt"><defs><clipPath id="_clipPath_iiNrr07JoiF7JKCqFc9yDQJbK5DPVhud"><rect width="256" height="256"/></clipPath></defs><g clip-path="url(#_clipPath_iiNrr07JoiF7JKCqFc9yDQJbK5DPVhud)"><rect width="256" height="256" style="fill:rgb(9,9,9)" fill-opacity="0"/><path d=" M 128 0 L 128 0 C 145.661 0 160 16.557 160 36.95 L 160 219.05 C 160 239.443 145.661 256 128 256 L 128 256 C 110.339 256 96 239.443 96 219.05 L 96 36.95 C 96 16.557 110.339 0 128 0 L 128 0 Z  M 213.333 42.667 L 213.333 42.667 C 225.108 42.667 234.667 52.226 234.667 64 L 234.667 192 C 234.667 203.774 225.108 213.333 213.333 213.333 L 213.333 213.333 C 201.559 213.333 192 203.774 192 192 L 192 64 C 192 52.226 201.559 42.667 213.333 42.667 L 213.333 42.667 Z  M 42.667 40 L 42.667 40 C 54.441 40 64 49.559 64 61.333 L 64 189.333 C 64 201.108 54.441 210.667 42.667 210.667 L 42.667 210.667 C 30.892 210.667 21.333 201.108 21.333 189.333 L 21.333 61.333 C 21.333 49.559 30.892 40 42.667 40 Z " fill-rule="evenodd" fill="rgb(255,255,255)"/></g></svg>